<?xml version="1.0" encoding="iso-8859-1"?>
<!-- Generator: Adobe Illustrator 19.0.0, SVG Export Plug-In . SVG Version: 6.00 Build 0)  -->
<svg version="1.1" id="Layer_1" xmlns="http://www.w3.org/2000/svg" xmlns:xlink="http://www.w3.org/1999/xlink" x="0px" y="0px"
	 viewBox="0 0 480 480" style="enable-background:new 0 0 480 480;" xml:space="preserve">
<g>
	<g>
		<g>
			<path d="M431.196,44.728l-19.821-19.807C394.844,8.385,376.042,0,355.489,0c-26.363,0-54.389,14.096-81.045,40.762
				L90.237,224.961c-0.138,0.138-0.262,0.287-0.391,0.432c-0.067,0.075-0.138,0.146-0.202,0.223
				c-0.246,0.294-0.475,0.598-0.684,0.915c-0.042,0.064-0.077,0.132-0.118,0.197c-0.164,0.263-0.316,0.531-0.456,0.807
				c-0.056,0.111-0.107,0.224-0.159,0.338c-0.118,0.257-0.224,0.518-0.319,0.784c-0.025,0.072-0.062,0.139-0.086,0.212
				l-31.715,95.07c-1.199,3.594-0.264,7.558,2.416,10.236l8.792,8.79l-40.477,40.45c-2.451,2.451-3.46,5.996-2.663,9.37
				c0.796,3.374,3.283,6.095,6.572,7.19l47.558,15.842c1.035,0.345,2.102,0.513,3.159,0.513c2.61,0,5.166-1.023,7.072-2.93
				l24.613-24.613l8.773,8.772c1.906,1.906,4.461,2.929,7.071,2.929c1.058,0,2.125-0.168,3.16-0.513l95.08-31.685
				c0.072-0.024,0.138-0.06,0.209-0.085c0.269-0.096,0.532-0.203,0.791-0.321c0.111-0.051,0.223-0.102,0.332-0.157
				c0.279-0.141,0.55-0.295,0.815-0.461c0.063-0.039,0.128-0.073,0.189-0.113c0.318-0.21,0.625-0.44,0.919-0.686
				c0.074-0.062,0.142-0.129,0.213-0.193c0.148-0.132,0.301-0.259,0.441-0.399l184.211-184.211
				c21.654-21.654,35.273-44.693,39.384-66.624C459.57,89.274,451.429,64.961,431.196,44.728z M78.763,394.89l-26.335-8.773
				l29.03-29.012l17.547,17.543L78.763,394.89z M131.694,379.048l-11.443-11.441c-0.011-0.01-0.019-0.022-0.029-0.033L88.537,335.89
				c-0.037-0.037-0.078-0.068-0.115-0.104l-11.386-11.383l24.64-73.86l52.004,52.006l51.882,51.883L131.694,379.048z
				 M435.083,111.354c-3.365,17.953-15.077,37.375-33.869,56.166l-177.14,177.14l-56.312-56.314l-56.312-56.314l177.137-177.13
				C311.413,32.069,334.546,20,355.489,20c15.055,0,29.098,6.413,41.745,19.065l19.822,19.808
				C432.626,74.443,438.692,92.101,435.083,111.354z"/>
			<path d="M367.506,106.11L193.239,280.412c-3.905,3.906-3.904,10.237,0.001,14.142c1.952,1.952,4.512,2.928,7.07,2.928
				c2.56,0,5.119-0.977,7.071-2.93L381.649,120.25c3.905-3.906,3.904-10.237-0.001-14.142
				C377.744,102.204,371.411,102.204,367.506,106.11z"/>
			<path d="M200.31,234.112c2.56,0,5.119-0.977,7.072-2.93L318.281,120.25c3.904-3.906,3.903-10.237-0.002-14.142
				c-3.907-3.905-10.237-3.903-14.143,0.002L193.238,217.042c-3.904,3.906-3.903,10.237,0.002,14.142
				C195.193,233.136,197.751,234.112,200.31,234.112z"/>
			<path d="M441.707,460H83.158c-5.522,0-10,4.477-10,10s4.478,10,10,10h358.549c5.523,0,10-4.477,10-10S447.229,460,441.707,460z"
				/>
			<path d="M396.89,435.183c5.522,0,10-4.477,10-10s-4.478-10-10-10H172.793c-5.523,0-10,4.477-10,10s4.477,10,10,10H396.89z"/>
		</g>
	</g>
</g>
<g>
</g>
<g>
</g>
<g>
</g>
<g>
</g>
<g>
</g>
<g>
</g>
<g>
</g>
<g>
</g>
<g>
</g>
<g>
</g>
<g>
</g>
<g>
</g>
<g>
</g>
<g>
</g>
<g>
</g>
</svg>
